<svg id="visual" viewBox="0 0 900 600" width="900" height="600" xmlns="http://www.w3.org/2000/svg" xmlns:xlink="http://www.w3.org/1999/xlink" version="1.1"><g stroke-width="1" stroke-linejoin="bevel"><path d="M397 298L364 229L320 292Z" fill="#112e42" stroke="#112e42"></path><path d="M364 229L286 184L320 292Z" fill="#00101c" stroke="#00101c"></path><path d="M320 292L419 375L397 298Z" fill="#277297" stroke="#277297"></path><path d="M286 184L178 283L320 292Z" fill="#19435d" stroke="#19435d"></path><path d="M225 372L311 429L320 292Z" fill="#246688" stroke="#246688"></path><path d="M320 292L311 429L419 375Z" fill="#205a7a" stroke="#205a7a"></path><path d="M178 283L225 372L320 292Z" fill="#081a28" stroke="#081a28"></path><path d="M525 332L496 174L397 298Z" fill="#19435d" stroke="#19435d"></path><path d="M397 298L496 174L364 229Z" fill="#205a7a" stroke="#205a7a"></path><path d="M364 229L331 77L286 184Z" fill="#1d4e6b" stroke="#1d4e6b"></path><path d="M286 184L208 82L232 176Z" fill="#1d4e6b" stroke="#1d4e6b"></path><path d="M462 431L525 332L419 375Z" fill="#277297" stroke="#277297"></path><path d="M419 375L525 332L397 298Z" fill="#205a7a" stroke="#205a7a"></path><path d="M232 176L178 283L286 184Z" fill="#205a7a" stroke="#205a7a"></path><path d="M330 465L462 431L419 375Z" fill="#205a7a" stroke="#205a7a"></path><path d="M496 174L432 95L364 229Z" fill="#277297" stroke="#277297"></path><path d="M210 530L330 465L311 429Z" fill="#19435d" stroke="#19435d"></path><path d="M311 429L330 465L419 375Z" fill="#081a28" stroke="#081a28"></path><path d="M432 95L331 77L364 229Z" fill="#246688" stroke="#246688"></path><path d="M565 174L515 127L496 174Z" fill="#112e42" stroke="#112e42"></path><path d="M496 174L515 127L432 95Z" fill="#081a28" stroke="#081a28"></path><path d="M525 332L565 174L496 174Z" fill="#246688" stroke="#246688"></path><path d="M462 431L596 376L525 332Z" fill="#00101c" stroke="#00101c"></path><path d="M428 526L479 477L462 431Z" fill="#246688" stroke="#246688"></path><path d="M331 77L208 82L286 184Z" fill="#081a28" stroke="#081a28"></path><path d="M64 187L78 304L178 283Z" fill="#15384f" stroke="#15384f"></path><path d="M596 376L603 333L525 332Z" fill="#1d4e6b" stroke="#1d4e6b"></path><path d="M525 332L603 333L565 174Z" fill="#00101c" stroke="#00101c"></path><path d="M561 482L596 376L462 431Z" fill="#19435d" stroke="#19435d"></path><path d="M330 465L428 526L462 431Z" fill="#112e42" stroke="#112e42"></path><path d="M479 477L561 482L462 431Z" fill="#112e42" stroke="#112e42"></path><path d="M717 179L590 132L565 174Z" fill="#1d4e6b" stroke="#1d4e6b"></path><path d="M565 174L590 132L515 127Z" fill="#112e42" stroke="#112e42"></path><path d="M461 0L363 0L432 95Z" fill="#205a7a" stroke="#205a7a"></path><path d="M461 0L432 95L515 127Z" fill="#277297" stroke="#277297"></path><path d="M432 95L363 0L331 77Z" fill="#112e42" stroke="#112e42"></path><path d="M331 77L325 0L208 82Z" fill="#1d4e6b" stroke="#1d4e6b"></path><path d="M363 0L325 0L331 77Z" fill="#205a7a" stroke="#205a7a"></path><path d="M178 283L86 394L225 372Z" fill="#297ea6" stroke="#297ea6"></path><path d="M225 372L210 530L311 429Z" fill="#277297" stroke="#277297"></path><path d="M64 187L178 283L232 176Z" fill="#19435d" stroke="#19435d"></path><path d="M463 600L561 482L479 477Z" fill="#0c2435" stroke="#0c2435"></path><path d="M631 0L461 0L515 127Z" fill="#277297" stroke="#277297"></path><path d="M88 483L210 530L225 372Z" fill="#297ea6" stroke="#297ea6"></path><path d="M330 465L389 600L428 526Z" fill="#081a28" stroke="#081a28"></path><path d="M78 304L86 394L178 283Z" fill="#0c2435" stroke="#0c2435"></path><path d="M78 138L64 187L232 176Z" fill="#19435d" stroke="#19435d"></path><path d="M0 373L88 483L86 394Z" fill="#112e42" stroke="#112e42"></path><path d="M208 82L78 138L232 176Z" fill="#15384f" stroke="#15384f"></path><path d="M121 0L78 138L208 82Z" fill="#19435d" stroke="#19435d"></path><path d="M316 600L389 600L330 465Z" fill="#1d4e6b" stroke="#1d4e6b"></path><path d="M428 526L463 600L479 477Z" fill="#277297" stroke="#277297"></path><path d="M210 530L316 600L330 465Z" fill="#277297" stroke="#277297"></path><path d="M325 0L167 0L208 82Z" fill="#246688" stroke="#246688"></path><path d="M389 600L463 600L428 526Z" fill="#1d4e6b" stroke="#1d4e6b"></path><path d="M0 334L86 394L78 304Z" fill="#1d4e6b" stroke="#1d4e6b"></path><path d="M86 394L88 483L225 372Z" fill="#081a28" stroke="#081a28"></path><path d="M210 530L177 600L316 600Z" fill="#297ea6" stroke="#297ea6"></path><path d="M688 472L596 376L561 482Z" fill="#081a28" stroke="#081a28"></path><path d="M688 472L691 416L596 376Z" fill="#1d4e6b" stroke="#1d4e6b"></path><path d="M596 376L691 416L603 333Z" fill="#19435d" stroke="#19435d"></path><path d="M603 333L721 280L565 174Z" fill="#1d4e6b" stroke="#1d4e6b"></path><path d="M691 416L721 280L603 333Z" fill="#112e42" stroke="#112e42"></path><path d="M167 0L121 0L208 82Z" fill="#277297" stroke="#277297"></path><path d="M64 187L0 334L78 304Z" fill="#00101c" stroke="#00101c"></path><path d="M0 167L0 334L64 187Z" fill="#246688" stroke="#246688"></path><path d="M0 167L64 187L78 138Z" fill="#277297" stroke="#277297"></path><path d="M721 280L717 179L565 174Z" fill="#0c2435" stroke="#0c2435"></path><path d="M590 132L631 0L515 127Z" fill="#081a28" stroke="#081a28"></path><path d="M0 334L0 373L86 394Z" fill="#0c2435" stroke="#0c2435"></path><path d="M139 600L210 530L88 483Z" fill="#205a7a" stroke="#205a7a"></path><path d="M139 600L177 600L210 530Z" fill="#205a7a" stroke="#205a7a"></path><path d="M0 96L0 167L78 138Z" fill="#15384f" stroke="#15384f"></path><path d="M606 600L688 472L561 482Z" fill="#277297" stroke="#277297"></path><path d="M691 416L780 283L721 280Z" fill="#081a28" stroke="#081a28"></path><path d="M704 89L631 0L590 132Z" fill="#205a7a" stroke="#205a7a"></path><path d="M717 179L704 89L590 132Z" fill="#112e42" stroke="#112e42"></path><path d="M0 539L139 600L88 483Z" fill="#19435d" stroke="#19435d"></path><path d="M121 0L0 96L78 138Z" fill="#0c2435" stroke="#0c2435"></path><path d="M463 600L606 600L561 482Z" fill="#15384f" stroke="#15384f"></path><path d="M721 280L780 283L717 179Z" fill="#1d4e6b" stroke="#1d4e6b"></path><path d="M717 179L789 124L704 89Z" fill="#112e42" stroke="#112e42"></path><path d="M811 421L780 283L691 416Z" fill="#15384f" stroke="#15384f"></path><path d="M0 373L0 539L88 483Z" fill="#112e42" stroke="#112e42"></path><path d="M121 0L0 0L0 96Z" fill="#0c2435" stroke="#0c2435"></path><path d="M838 189L789 124L717 179Z" fill="#297ea6" stroke="#297ea6"></path><path d="M704 89L724 0L631 0Z" fill="#205a7a" stroke="#205a7a"></path><path d="M809 0L724 0L704 89Z" fill="#0c2435" stroke="#0c2435"></path><path d="M792 500L811 421L688 472Z" fill="#297ea6" stroke="#297ea6"></path><path d="M688 472L811 421L691 416Z" fill="#246688" stroke="#246688"></path><path d="M780 283L838 189L717 179Z" fill="#277297" stroke="#277297"></path><path d="M900 297L838 189L780 283Z" fill="#112e42" stroke="#112e42"></path><path d="M789 124L809 0L704 89Z" fill="#277297" stroke="#277297"></path><path d="M0 539L0 600L139 600Z" fill="#0c2435" stroke="#0c2435"></path><path d="M731 600L792 500L688 472Z" fill="#19435d" stroke="#19435d"></path><path d="M606 600L731 600L688 472Z" fill="#246688" stroke="#246688"></path><path d="M900 97L809 0L789 124Z" fill="#00101c" stroke="#00101c"></path><path d="M731 600L772 600L792 500Z" fill="#112e42" stroke="#112e42"></path><path d="M900 366L780 283L811 421Z" fill="#297ea6" stroke="#297ea6"></path><path d="M900 366L900 297L780 283Z" fill="#297ea6" stroke="#297ea6"></path><path d="M838 189L900 97L789 124Z" fill="#112e42" stroke="#112e42"></path><path d="M900 366L811 421L900 519Z" fill="#277297" stroke="#277297"></path><path d="M900 297L900 215L838 189Z" fill="#277297" stroke="#277297"></path><path d="M900 519L811 421L792 500Z" fill="#0c2435" stroke="#0c2435"></path><path d="M900 215L900 97L838 189Z" fill="#246688" stroke="#246688"></path><path d="M900 600L900 519L792 500Z" fill="#297ea6" stroke="#297ea6"></path><path d="M900 97L900 0L809 0Z" fill="#277297" stroke="#277297"></path><path d="M772 600L900 600L792 500Z" fill="#205a7a" stroke="#205a7a"></path></g></svg>